# AST/ASF file generated using VICON BodyLanguage
# -----------------------------------------------
:version 1.10
:name VICON
:units
  mass 1.0
  length 0.45
  angle deg
:documentation
   .ast/.asf automatically generated from VICON data using
   VICON BodyBuilder and BodyLanguage model FoxedUp or BRILLIANT.MOD
:root
   order TX TY TZ RX RY RZ
   axis XYZ
   position 0 0 0  
   orientation 0 0 0 
:bonedata
  begin
     id 1 
     name lhipjoint
     direction 0.671379 -0.66392 0.329334 
     length 2.38647 
     axis 0 0 0  XYZ
  end
  begin
     id 2 
     name lfemur
     direction 0.34202 -0.939693 0  
     length 6.48179  
     axis 0 0 20  XYZ
    dof rx ry rz
    limits (-160.0 20.0)
           (-70.0 70.0)
           (-60.0 70.0)
  end
  begin
     id 3 
     name ltibia
     direction 0.34202 -0.939693 0   
     length 6.86524   
     axis 0 0 20   XYZ
    dof rx
    limits (-10.0 170.0)
  end
  begin
     id 4 
     name lfoot
     direction 0.204886 -0.562919 0.800715   
     length 1.73031   
     axis -90 7.62852e-016 20   XYZ
    dof rx rz
    limits (-45.0 90.0)
           (-70.0 20.0)
  end
  begin
     id 5 
     name ltoes
     direction 1.53548e-011 -4.21841e-011 1   
     length 0.828161   
     axis -90 7.62852e-016 20   XYZ
    dof rx
    limits (-90.0 20.0)
  end
  begin
     id 6 
     name rhipjoint
     direction -0.662732 -0.670855 0.332775   
     length 2.3618  
     axis 0 0 0  XYZ 
  end
  begin
     id 7 
     name rfemur
     direction -0.34202 -0.939693 0   
     length 6.3025   
     axis 0 0 -20   XYZ
    dof rx ry rz
    limits (-160.0 20.0)
           (-70.0 70.0)
           (-70.0 60.0)
  end
  begin
     id 8 
     name rtibia
     direction -0.34202 -0.939693 0   
     length 6.8732   
     axis 0 0 -20   XYZ
    dof rx
    limits (-10.0 170.0)
 end
 begin
     id 9 
     name rfoot
     direction -0.173856 -0.477665 0.861168   
     length 1.54784  
     axis -90 -7.62852e-016 -20   XYZ
    dof rx rz
    limits (-45.0 90.0)
           (-20.0 70.0)
  end
  begin
     id 10 
     name rtoes
     direction -1.53562e-011 -4.21802e-011 1   
     length 0.759618   
     axis -90 -7.62852e-016 -20   XYZ
    dof rx
    limits (-90.0 20.0)
  end
  begin
     id 11 
     name lowerback
     direction -0.0278357 0.999497 -0.0151789   
     length 1.97203   
     axis 0 0 0   XYZ
    dof rx ry rz
    limits (-20.0 45.0)
           (-30.0 30.0)
           (-30.0 30.0)
  end
  begin
     id 12 
     name upperback
     direction -0.00360622 0.997542 0.0699804   
     length 1.94709   
     axis 0 0 0   XYZ
    dof rx ry rz
    limits (-20.0 45.0)
           (-30.0 30.0)
           (-30.0 30.0)
  end
  begin
     id 13 
     name thorax
     direction 0.00907706 0.997048 0.0762461   
     length 1.95722   
     axis 0 0 0   XYZ
    dof rx ry rz
    limits (-20.0 45.0)
           (-30.0 30.0)
           (-30.0 30.0)
  end
  begin
     id 14 
     name lowerneck
     direction -0.0481835 0.99872 -0.0153927   
     length 1.63078   
     axis 0 0 0   XYZ
    dof rx ry rz
    limits (-20.0 45.0)
           (-30.0 30.0)
           (-30.0 30.0)
  end
  begin
     id 15 
     name upperneck
     direction 0.0859716 0.979226 -0.183644   
     length 1.62591   
     axis 0 0 0   XYZ
    dof rx ry rz
    limits (-20.0 45.0)
           (-30.0 30.0)
           (-30.0 30.0)
  end
  begin
     id 16
     name head
     direction 0.0324821 0.997629 -0.0606773  
     length 1.64811  
     axis 0 0 0   XYZ
    dof rx ry rz
    limits (-20.0 45.0)
           (-30.0 30.0)
           (-30.0 30.0)
  end
  begin
     id 17 
     name lclavicle
     direction 0.939609 0.311019 0.142835  
     length 3.70647  
     axis 0 0 0   XYZ
    dof ry rz
    limits (-20.0 10.0)
           (0.0 20.0)
  end
  begin
     id 18 
     name lhumerus
     direction 1 -4.48963e-011 -1.59838e-027   
     length 4.59207   
     axis 180 -30 -90   XYZ
    dof rx ry rz
    limits (-60.0 90.0)
           (-90.0 90.0)
           (-90.0 90.0)
  end
  begin
     id 19
     name lradius
     direction 1 -4.48957e-011 -1.3483e-026   
     length 2.98109   
     axis 180 -30 -90   XYZ
    dof rx
    limits (-10.0 170.0)
  end
  begin
     id 20
     name lwrist
     direction 1 -4.48954e-011 -3.11579e-026   
     length 1.49055   
     axis 2.00652e-014 90 90   XYZ
    dof ry
    limits (-180.0 0.0)
 end
  begin
     id 21 
     name lhand
     direction 1 -4.4911e-011 -6.23158e-026   
     length 0.480203   
     axis 3.97628e-014 90 90   XYZ
    dof rx rz
    limits (-90.0 90.0)
           (-45.0 45.0)
  end
  begin
     id 22 
     name lfingers
     direction 1 -4.48893e-011 -1.24632e-025   
     length 0.387152   
     axis 7.95256e-014 90 90   XYZ
    dof rx
    limits (0.0 90.0)
  end
  begin
     id 23
     name lthumb
     direction 0.707107 -6.35013e-011 0.707107   
     length 0.555875   
     axis -90 45 2.85299e-015   XYZ
    dof rx rz
    limits (-45.0 45.0)
           (-45.0 45.0)
  end
  begin
     id 24 
     name rclavicle
     direction -0.950396 0.30392 0.0661859   
     length 3.70894  
     axis 0 0 0   XYZ 
    dof ry rz
    limits (-10.0 20.0)
           (-20.0 0.0)
  end
  begin
     id 25 
     name rhumerus
     direction -1 -4.48957e-011 -2.96677e-027  
     length 4.76508   
     axis 180 30 90   XYZ
    dof rx ry rz
    limits (-90.0 60.0)
           (-90.0 90.0)
           (-90.0 90.0)
  end
  begin
     id 26 
     name rradius
     direction -1 -4.48974e-011 -1.44501e-026   
     length 2.78902   
     axis 180 30 90   XYZ
    dof rx
    limits (-10.0 170.0)
  end
  begin
     id 27 
     name rwrist
     direction -1 -4.48978e-011 -3.11579e-026   
     length 1.39451   
     axis 2.00652e-014 -90 -90   XYZ
    dof ry
    limits (-180.0 0.0)
  end
  begin
     id 28
     name rhand
     direction -1 -4.48956e-011 -6.23158e-026   
     length 0.721303   
     axis 3.97628e-014 -90 -90   XYZ
    dof rx rz
    limits (-90.0 90.0)
           (-45.0 45.0)
  end
  begin
     id 29
     name rfingers
     direction -1 -4.4899e-011 -1.24632e-025   
     length 0.581533   
     axis 7.95256e-014 -90 -90   XYZ
    dof rx
    limits (0.0 90.0)
  end
  begin
     id 30
     name rthumb
     direction -0.707107 -6.34911e-011 0.707107   
     length 0.834968   
     axis -90 -45 -2.85299e-015   XYZ
    dof rx rz
    limits (-45.0 45.0)
           (-45.0 45.0)
  end
:hierarchy
  begin
    root lhipjoint rhipjoint lowerback
    lhipjoint lfemur
    lfemur ltibia
    ltibia lfoot
    lfoot ltoes
    rhipjoint rfemur
    rfemur rtibia
    rtibia rfoot
    rfoot rtoes
    lowerback upperback
    upperback thorax
    thorax lowerneck lclavicle rclavicle
    lowerneck upperneck
    upperneck head
    lclavicle lhumerus
    lhumerus lradius
    lradius lwrist
    lwrist lhand lthumb
    lhand lfingers
    rclavicle rhumerus
    rhumerus rradius
    rradius rwrist
    rwrist rhand rthumb
    rhand rfingers
  end

#!OML:ASF I:\salsa\salsa 7_09\Patient 1\Session 1\dancerfemale.ASF
:FULLY-SPECIFIED
:DEGREES
911
root 6.96506 15.7602 -2.23313 -536.627 216.817 -179.111
lowerback 1.65803 9.78488 2.49346
upperback -6.46829 13.0607 -3.08229
thorax -6.41372 6.24477 -5.37145
lowerneck 1.97837 14.723 2.05137
upperneck 10.3005 19.9091 -1.2963
head 3.38165 9.92237 -0.22541
rclavicle -2.98177e-014 1.11319e-014
rhumerus -31.5624 9.16742 -105.277
rradius 70.8228
rwrist -6.64726
rhand 5.34052 49.8582
rfingers 7.12502
rthumb 30.6947 22.399
lclavicle -2.98177e-014 1.11319e-014
lhumerus -46.1464 -1.02273 72.4448
lradius 58.9118
lwrist -28.0471
lhand -5.26722 29.1187
lfingers 7.12502
lthumb 20.5366 58.0525
rfemur -19.0803 -20.0296 16.5219
rtibia 67.4089
rfoot 14.1089 7.32586
rtoes -24.6118
lfemur -23.144 -2.9465 -34.0792
ltibia 37.3838
lfoot -26.7198 17.9795
ltoes 7.90767
912
root 6.80295 15.7762 -2.17369 -536.54 212.9 -178.865
lowerback 2.24967 10.3292 3.16334
upperback -6.45182 13.8225 -3.70357
thorax -6.35206 6.58074 -6.46642
lowerneck 1.77063 16.0039 2.02227
upperneck 10.2445 21.6137 -0.978464
head 3.39482 10.7783 -0.0540198
rclavicle -3.03147e-014 2.06736e-014
rhumerus -33.7515 7.88241 -104.168
rradius 69.9454
rwrist -5.17602
rhand 4.6385 50.1657
rfingers 7.12502
rthumb 30.0251 22.5829
lclavicle -3.03147e-014 2.06736e-014
lhumerus -42.793 -2.65247 74.9286
lradius 61.7261
lwrist -26.8648
lhand -5.92586 28.5046
lfingers 7.12502
lthumb 19.9036 57.5054
rfemur -21.0279 -19.8234 16.237
rtibia 68.5491
rfoot 8.30698 3.23845
rtoes -21.5776
lfemur -22.5119 -2.30089 -34.1624
ltibia 37.3869
lfoot -25.743 14.3756
ltoes 6.01879
913
root 6.63474 15.7587 -2.13306 -536.876 208.804 -177.902
lowerback 3.05506 10.8642 3.00873
upperback -6.40995 14.522 -4.39814
thorax -6.53703 6.91459 -7.2785
lowerneck 1.46807 16.9801 1.93606
upperneck 10.505 22.9118 -0.564868
head 3.50084 11.4297 0.164495
rclavicle 1.7006e-013 -5.56597e-015
rhumerus -36.3898 5.97817 -102.897
rradius 69.4514
rwrist -3.54742
rhand 4.11895 50.7427
rfingers 7.12502
rthumb 29.5293 23.0712
lclavicle 1.7006e-013 -5.56597e-015
lhumerus -39.8118 -4.62382 77.7774
lradius 64.5612
lwrist -25.5641
lhand -7.14417 28.0833
lfingers 7.12502
lthumb 18.7322 57.2013
rfemur -22.7802 -19.1361 15.0977
rtibia 69.3241
rfoot 4.153 2.12035
rtoes -22.2394
lfemur -21.9761 -1.58802 -34.851
ltibia 37.4866
lfoot -24.7756 10.6108
ltoes 4.50159
914
root 6.46737 15.7355 -2.1025 -536.835 204.369 -176.861
lowerback 3.54907 11.2668 2.7076
upperback -6.41985 15.0199 -5.11215
thorax -6.64582 7.16023 -7.98276
lowerneck 1.42915 17.7554 1.82636
upperneck 10.6485 23.9393 -0.185547
head 3.5094 11.95 0.331173
rclavicle 6.98728e-014 -3.73715e-014
rhumerus -39.4694 4.39314 -101.687
rradius 69.4351
rwrist -2.73765
rhand 3.72002 50.9781
rfingers 7.12502
rthumb 29.1484 23.2399
lclavicle 6.98728e-014 -3.73715e-014
lhumerus -37.2592 -6.65313 80.6976
lradius 67.3431
lwrist -24.8591
lhand -8.29357 27.6486
lfingers 7.12502
lthumb 17.6264 56.8696
rfemur -24.6146 -18.4504 13.6763
rtibia 69.615
rfoot 0.223871 0.813101
rtoes -21.4665
lfemur -21.8128 -1.60217 -35.5929
ltibia 37.5874
lfoot -23.8781 7.22273
ltoes 3.16375
915
root 6.29301 15.7216 -2.07285 -536.148 199.391 -176.36
lowerback 3.4885 11.4344 2.78117
upperback -6.41315 15.2317 -5.67893
thorax -6.40202 7.27222 -8.57951
lowerneck 1.54167 18.0941 2.46439
upperneck 10.6127 24.4836 -0.995589
head 3.69459 12.2147 0.0538158
rclavicle 3.66758e-014 2.78299e-014
rhumerus -42.7184 3.33916 -100.747
rradius 69.8468
rwrist -3.20489
rhand 3.54663 50.8695
rfingers 7.12502
rthumb 28.9828 23.1028
lclavicle 3.66758e-014 2.78299e-014
lhumerus -35.0403 -8.65542 83.5937
lradius 70.0163
lwrist -24.1504
lhand -8.90883 27.1146
lfingers 7.12502
lthumb 17.0342 56.3878
rfemur -26.3097 -17.9165 12.6511
rtibia 69.4226
rfoot -3.38491 -0.51054
rtoes -21.3752
lfemur -22.012 -2.46125 -35.7361
ltibia 37.7732
lfoot -23.0264 4.1748
ltoes 1.59481
916
root 6.11232 15.7183 -2.04105 -535.238 194.074 -176.089
lowerback 3.21971 11.4577 2.9545
upperback -6.37845 15.2662 -6.07958
thorax -6.05485 7.30306 -8.99783
lowerneck 1.47919 18.2094 2.72657
upperneck 10.5568 24.7127 -1.63653
head 3.82626 12.3153 -0.133619
rclavicle -2.82274e-014 4.6118e-014
rhumerus -45.9799 2.31034 -99.9436
rradius 70.3337
rwrist -4.28313
rhand 3.82176 50.9089
rfingers 7.12502
rthumb 29.2455 23.1876
lclavicle -2.82274e-014 4.6118e-014
lhumerus -33.3159 -10.6975 86.5755
lradius 72.5535
lwrist -23.3354
lhand -9.6198 26.8173
lfingers 7.12502
lthumb 16.3497 56.1481
rfemur -27.5106 -17.2196 11.6684
rtibia 68.6081
rfoot -6.40244 -1.89036
rtoes -21.5739
lfemur -22.3288 -3.91021 -35.4782
ltibia 37.9853
lfoot -22.2059 1.22461
ltoes 0.763946
917
root 5.92791 15.7177 -1.9913 -534.53 188.275 -175.288
lowerback 2.90573 11.2624 2.58241
upperback -6.24041 14.9683 -6.48714
thorax -5.76017 7.1919 -9.13173
lowerneck 1.19141 18.1999 2.59629
upperneck 10.6279 24.7394 -1.86271
head 3.92075 12.3135 -0.144759
rclavicle -3.08613e-014 -2.70347e-014
rhumerus -49.4432 1.44891 -99.3259
rradius 70.983
rwrist -5.44025
rhand 4.10385 51.1242
rfingers 7.12502
rthumb 29.5148 23.4502
lclavicle -3.08613e-014 -2.70347e-014
lhumerus -32.1674 -12.7337 89.4801
lradius 75.0478
lwrist -22.5788
lhand -10.2561 26.5871
lfingers 7.12502
lthumb 15.7371 55.9673
rfemur -27.757 -16.6933 9.69315
rtibia 67.2023
rfoot -9.1322 -2.66747
rtoes -21.6318
lfemur -22.343 -5.71689 -35.6579
ltibia 38.1103
lfoot -21.4539 -1.95043
ltoes 0.597725
918
root 5.74086 15.7268 -1.94557 -533.675 182.645 -174.914
lowerback 2.80754 11.035 2.63888
upperback -6.22457 14.6682 -6.76141
thorax -5.65106 7.04815 -9.41538
lowerneck 0.998558 18.0735 2.37712
upperneck 10.5495 24.6024 -2.08977
head 3.92714 12.2315 -0.175522
rclavicle 1.61413e-013 -2.38542e-014
rhumerus -52.9552 0.812241 -99.0179
rradius 71.7169
rwrist -6.41367
rhand 3.94964 51.4413
rfingers 7.12502
rthumb 29.3676 23.7413
lclavicle 1.61413e-013 -2.38542e-014
lhumerus -31.4573 -14.5477 92.0482
lradius 77.4298
lwrist -22.5718
lhand -9.97159 25.4296
lfingers 7.12502
lthumb 16.011 54.7879
rfemur -27.5924 -15.1458 8.11344
rtibia 65.1416
rfoot -11.3757 -3.26991
rtoes -20.8402
lfemur -22.4865 -7.14867 -35.2789
ltibia 38.1523
lfoot -20.7646 -5.25278
ltoes -0.513852
919
root 5.55451 15.7319 -1.8993 -532.887 177.059 -174.329
lowerback 2.75936 10.7301 2.72407
upperback -6.09125 14.2664 -7.12606
thorax -5.43555 6.86001 -9.80394
lowerneck 1.02036 17.8925 2.31414
upperneck 10.1152 24.3882 -2.53596
head 3.81962 12.1171 -0.332899
rclavicle 8.23465e-014 4.53229e-014
rhumerus -55.9312 -0.124893 -98.9258
rradius 72.3339
rwrist -6.86428
rhand 3.48286 51.7336
rfingers 7.12502
rthumb 28.9219 23.9564
lclavicle 8.23465e-014 4.53229e-014
lhumerus -30.8615 -16.3327 94.254
lradius 79.7021
lwrist -22.4661
lhand -9.23986 24.16
lfingers 7.12502
lthumb 16.7155 53.4603
rfemur -26.8226 -13.0528 6.2262
rtibia 62.5075
rfoot -13.421 -3.70357
rtoes -21.3855
lfemur -22.515 -8.35779 -35.0606
ltibia 38.0306
lfoot -20.0012 -8.72243
ltoes -2.04198
920
root 5.37203 15.7392 -1.83987 -532.028 171.567 -173.546
lowerback 2.37877 10.4335 2.74052
upperback -5.77598 13.8755 -7.55137
thorax -4.8438 6.70668 -10.1213
lowerneck 1.10841 17.7343 2.47391
upperneck 9.52612 24.2004 -3.11259
head 3.69607 12.0216 -0.565114
rclavicle 7.73272e-014 1.74931e-014
rhumerus -58.329 -1.58518 -98.7935
rradius 73.1479
rwrist -6.97203
rhand 3.10885 51.806
rfingers 7.12502
rthumb 28.5646 23.9682
lclavicle 7.73272e-014 1.74931e-014
lhumerus -30.4387 -18.3859 96.4183
lradius 81.939
lwrist -21.8583
lhand -9.48773 24.4727
lfingers 7.12502
lthumb 16.4769 53.793
rfemur -25.4866 -10.5401 4.14457
rtibia 59.2934
rfoot -14.8589 -4.40712
rtoes -20.2122
lfemur -22.5183 -9.60567 -34.9302
ltibia 37.8529
lfoot -19.1792 -12.1825
ltoes -2.87383
921
root 5.17802 15.7544 -1.76441 -531.097 166.398 -172.841
lowerback 2.14399 10.1604 2.33171
upperback -5.76982 13.4908 -7.73623
thorax -4.82263 6.53495 -10.0594
lowerneck 1.32774 17.5438 2.44902
upperneck 9.35831 23.9546 -3.19048
head 3.59695 11.9079 -0.629013
rclavicle -5.07895e-014 -8.74653e-015
rhumerus -61.0414 -3.11555 -98.5838
rradius 74.1543
rwrist -7.11429
rhand 2.96947 51.8215
rfingers 7.12502
rthumb 28.4314 23.9614
lclavicle -5.07895e-014 -8.74653e-015
lhumerus -30.8916 -20.1791 98.6441
lradius 83.9125
lwrist -21.6243
lhand -9.89597 24.9474
lfingers 7.12502
lthumb 16.0838 54.2999
rfemur -23.8285 -7.21553 2.31161
rtibia 55.663
rfoot -16.3752 -5.06234
rtoes -21.8554
lfemur -22.5404 -10.7666 -34.531
ltibia 37.6027
lfoot -18.3749 -15.5283
ltoes -3.31024
922
root 4.9533 15.7813 -1.6661 -530.327 161.795 -172.418
lowerback 1.858 9.94755 1.64933
upperback -5.73442 13.177 -7.67265
thorax -4.84422 6.40756 -9.57812
lowerneck 0.994341 17.2121 2.00544
upperneck 9.66746 23.4747 -2.55227
head 3.59529 11.672 -0.373066
rclavicle 6.5102e-014 2.14687e-014
rhumerus -63.3424 -4.41432 -98.4948
rradius 75.001
rwrist -7.45738
rhand 3.02864 51.806
rfingers 7.12502
rthumb 28.4879 23.9553
lclavicle 6.5102e-014 2.14687e-014
lhumerus -31.1815 -21.4427 100.355
lradius 85.4781
lwrist -20.9938
lhand -9.08726 24.1472
lfingers 7.12502
lthumb 16.8624 53.4351
rfemur -21.9973 -2.55809 1.14348
rtibia 51.7597
rfoot -18.3153 -4.24921
rtoes -17.6342
lfemur -22.5817 -11.7418 -33.599
ltibia 37.3868
lfoot -17.714 -18.4993
ltoes -3.67484
923
root 4.75859 15.8073 -1.58845 -529.418 157.464 -171.673
lowerback 1.61475 9.68345 1.37099
upperback -5.61392 12.8221 -7.82282
thorax -4.66349 6.25483 -9.52546
lowerneck 1.12577 17.0894 2.08431
upperneck 9.61009 23.3112 -2.51801
head 3.55191 11.6009 -0.39635
rclavicle -1.62656e-013 -5.56597e-015
rhumerus -65.1165 -5.46983 -98.6256
rradius 75.8089
rwrist -8.0611
rhand 2.83588 51.8314
rfingers 7.12502
rthumb 28.3037 23.9501
lclavicle -1.62656e-013 -5.56597e-015
lhumerus -31.4118 -22.3767 101.554
lradius 86.9616
lwrist -20.2915
lhand -8.18822 23.2655
lfingers 7.12502
lthumb 17.7277 52.4774
rfemur -20.2071 2.23624 -0.256025
rtibia 48.1303
rfoot -18.7485 -3.53492
rtoes -23.4988
lfemur -22.7408 -13.0553 -32.9726
ltibia 37.1539
lfoot -17.1292 -20.8569
ltoes -4.29164
924
root 4.56958 15.8226 -1.51449 -528.858 153.212 -171.246
lowerback 1.55333 9.33444 1.67545
upperback -5.43094 12.3849 -7.87041
thorax -4.43316 6.04099 -9.6992
lowerneck 1.38378 17.0326 2.08882
upperneck 9.44034 23.2205 -2.39168
head 3.42584 11.5698 -0.401743
rclavicle -1.23545e-013 3.18055e-014
rhumerus -66.5323 -6.21515 -98.8634
rradius 76.5736
rwrist -8.55055
rhand 2.41123 52.029
rfingers 7.12502
rthumb 27.8978 24.081
lclavicle -1.23545e-013 3.18055e-014
lhumerus -31.8982 -23.0566 102.387
lradius 88.3167
lwrist -20.2578
lhand -7.82056 22.9186
lfingers 7.12502
lthumb 18.0815 52.0982
rfemur -18.1702 7.44344 -1.01111
rtibia 45.0521
rfoot -19.4287 -1.14131
rtoes -29.2187
lfemur -22.7445 -14.5338 -32.0424
ltibia 36.9723
lfoot -16.8292 -22.7491
ltoes -6.05813
925
root 4.36582 15.8437 -1.42451 -528.305 149.436 -170.79
lowerback 1.40773 9.03651 1.5547
upperback -5.29135 11.9927 -7.84122
thorax -4.30012 5.85937 -9.56057
lowerneck 1.78217 16.9488 2.19435
upperneck 9.12294 23.0964 -2.38155
head 3.25289 11.5246 -0.47447
rclavicle -2.9271e-014 1.82882e-014
rhumerus -67.5491 -6.71596 -99.1751
rradius 77.1862
rwrist -8.86886
rhand 2.42571 52.0974
rfingers 7.12502
rthumb 27.9116 24.1517
lclavicle -2.9271e-014 1.82882e-014
lhumerus -32.6196 -23.3799 102.919
lradius 89.4308
lwrist -20.4043
lhand -7.63364 22.6792
lfingers 7.12502
lthumb 18.2613 51.842
rfemur -16.1835 11.7817 -1.17704
rtibia 42.8259
rfoot -18.2881 3.91359
rtoes -28.3246
lfemur -22.8146 -16.0225 -31.0658
ltibia 36.8156
lfoot -16.804 -24.0946
ltoes -7.76263
